<svg width="24" height="24" viewBox="0 0 24 24" fill="none" xmlns="http://www.w3.org/2000/svg">
<path fill-rule="evenodd" clip-rule="evenodd" d="M6 3C4.34315 3 3 4.34315 3 6V18C3 19.6569 4.34315 21 6 21H18C19.6569 21 21 19.6569 21 18V6C21 4.34315 19.6569 3 18 3H6ZM16.7284 8.79289C16.3378 8.40237 15.7047 8.40237 15.3141 8.79289L10.0212 14.0858L8.20711 12.2716C7.81658 11.8811 7.18342 11.8811 6.79289 12.2716C6.40237 12.6622 6.40237 13.2953 6.79289 13.6859L9.31414 16.2071C9.70467 16.5976 10.3378 16.5976 10.7284 16.2071L16.7284 10.2071C17.1189 9.81658 17.1189 9.18342 16.7284 8.79289Z" fill="#FFFFFF" fill-opacity="1"/>
<mask id="mask0" mask-type="alpha" maskUnits="userSpaceOnUse" x="3" y="3" width="18" height="18">
<path fill-rule="evenodd" clip-rule="evenodd" d="M6 3C4.34315 3 3 4.34315 3 6V18C3 19.6569 4.34315 21 6 21H18C19.6569 21 21 19.6569 21 18V6C21 4.34315 19.6569 3 18 3H6ZM16.7284 8.79289C16.3378 8.40237 15.7047 8.40237 15.3141 8.79289L10.0212 14.0858L8.20711 12.2716C7.81658 11.8811 7.18342 11.8811 6.79289 12.2716C6.40237 12.6622 6.40237 13.2953 6.79289 13.6859L9.31414 16.2071C9.70467 16.5976 10.3378 16.5976 10.7284 16.2071L16.7284 10.2071C17.1189 9.81658 17.1189 9.18342 16.7284 8.79289Z" fill="#FFFFFF"/>
</mask>
<g mask="url(#mask0)">
<rect width="24" height="24" fill="#0096ae"/>
</g>
</svg>
