<svg width="36" height="36" viewBox="0 0 36 36" fill="none" xmlns="http://www.w3.org/2000/svg">
<g opacity="0.3">
<path d="M5.5 18C5.5 11.0965 11.0964 5.50002 18 5.50002C24.9036 5.50002 30.5 11.0965 30.5 18C30.5 24.9036 24.9036 30.5 18 30.5C11.0964 30.5 5.5 24.9036 5.5 18Z" stroke="#e63434" stroke-width="1.66667"/>
</g>
<g opacity="0.1">
<path d="M1.33333 18C1.33333 8.79525 8.79525 1.33333 18 1.33333C27.2047 1.33333 34.6667 8.79525 34.6667 18C34.6667 27.2047 27.2047 34.6667 18 34.6667C8.79525 34.6667 1.33333 27.2047 1.33333 18Z" stroke="#e63434" stroke-width="1.66667"/>
</g>
<g clip-path="url(#clip0_3872_67)">
<path d="M18 14.6667V18M18 21.3334H18.0083M26.3333 18C26.3333 22.6024 22.6024 26.3334 18 26.3334C13.3976 26.3334 9.66667 22.6024 9.66667 18C9.66667 13.3976 13.3976 9.66669 18 9.66669C22.6024 9.66669 26.3333 13.3976 26.3333 18Z" stroke="#e63434" stroke-width="1.66667" stroke-linecap="round" stroke-linejoin="round"/>
</g>
<defs>
<clipPath id="clip0_3872_67">
<rect width="20" height="20" fill="white" transform="translate(8 8)"/>
</clipPath>
</defs>
</svg>
