<svg width="52" height="52" viewBox="0 0 52 52" fill="none" xmlns="http://www.w3.org/2000/svg">
<g filter="url(#filter0_d_823_7944)">
<path d="M2.5 11C2.5 5.75329 6.75329 1.5 12 1.5H40C45.2467 1.5 49.5 5.75329 49.5 11V39C49.5 44.2467 45.2467 48.5 40 48.5H12C6.75329 48.5 2.5 44.2467 2.5 39V11Z" stroke="#EAECF0" shape-rendering="crispEdges"/>
<path d="M35 31L33.9999 32.094C33.4695 32.6741 32.7501 33 32.0001 33C31.2501 33 30.5308 32.6741 30.0004 32.094C29.4692 31.5151 28.75 31.1901 28.0002 31.1901C27.2504 31.1901 26.5311 31.5151 26 32.094M17 33H18.6745C19.1637 33 19.4083 33 19.6385 32.9447C19.8426 32.8957 20.0377 32.8149 20.2166 32.7053C20.4184 32.5816 20.5914 32.4086 20.9373 32.0627L33.5 19.5C34.3285 18.6716 34.3285 17.3284 33.5 16.5C32.6716 15.6716 31.3285 15.6716 30.5 16.5L17.9373 29.0627C17.5914 29.4086 17.4184 29.5816 17.2947 29.7834C17.1851 29.9624 17.1043 30.1574 17.0553 30.3615C17 30.5917 17 30.8363 17 31.3255V33Z" stroke="#344054" stroke-width="2" stroke-linecap="round" stroke-linejoin="round"/>
</g>
<defs>
<filter id="filter0_d_823_7944" x="0" y="0" width="52" height="52" filterUnits="userSpaceOnUse" color-interpolation-filters="sRGB">
<feFlood flood-opacity="0" result="BackgroundImageFix"/>
<feColorMatrix in="SourceAlpha" type="matrix" values="0 0 0 0 0 0 0 0 0 0 0 0 0 0 0 0 0 0 127 0" result="hardAlpha"/>
<feOffset dy="1"/>
<feGaussianBlur stdDeviation="1"/>
<feComposite in2="hardAlpha" operator="out"/>
<feColorMatrix type="matrix" values="0 0 0 0 0.0627451 0 0 0 0 0.0941176 0 0 0 0 0.156863 0 0 0 0.05 0"/>
<feBlend mode="normal" in2="BackgroundImageFix" result="effect1_dropShadow_823_7944"/>
<feBlend mode="normal" in="SourceGraphic" in2="effect1_dropShadow_823_7944" result="shape"/>
</filter>
</defs>
</svg>
