<svg width="52" height="52" viewBox="0 0 52 52" fill="none" xmlns="http://www.w3.org/2000/svg">
<g filter="url(#filter0_d_823_17938)">
<path d="M2.5 11C2.5 5.75329 6.75329 1.5 12 1.5H40C45.2467 1.5 49.5 5.75329 49.5 11V39C49.5 44.2467 45.2467 48.5 40 48.5H12C6.75329 48.5 2.5 44.2467 2.5 39V11Z" stroke="#EAECF0" shape-rendering="crispEdges"/>
<path d="M20.0601 33.9125C21.2701 34.4625 22.8101 34.4625 24.0201 33.9125C25.2301 33.3625 26.7701 33.3625 27.9801 33.9125C29.1901 34.4625 30.7301 34.4625 31.9401 33.9125M26 16V18M18 26H16M20.3141 20.3141L18.8999 18.8999M31.6855 20.3141L33.0998 18.8999M36 26H34M21 26C21 23.2386 23.2386 21 26 21C28.7614 21 31 23.2386 31 26M16.1001 30.4125C17.3101 29.8625 18.8501 29.8625 20.0601 30.4125C21.2701 30.9625 22.8101 30.9625 24.0201 30.4125C25.2301 29.8625 26.7701 29.8625 27.9801 30.4125C29.1901 30.9625 30.7301 30.9625 31.9401 30.4125C33.1501 29.8625 34.6901 29.8625 35.9001 30.4125" stroke="#344054" stroke-width="2" stroke-linecap="round" stroke-linejoin="round"/>
</g>
<defs>
<filter id="filter0_d_823_17938" x="0" y="0" width="52" height="52" filterUnits="userSpaceOnUse" color-interpolation-filters="sRGB">
<feFlood flood-opacity="0" result="BackgroundImageFix"/>
<feColorMatrix in="SourceAlpha" type="matrix" values="0 0 0 0 0 0 0 0 0 0 0 0 0 0 0 0 0 0 127 0" result="hardAlpha"/>
<feOffset dy="1"/>
<feGaussianBlur stdDeviation="1"/>
<feComposite in2="hardAlpha" operator="out"/>
<feColorMatrix type="matrix" values="0 0 0 0 0.0627451 0 0 0 0 0.0941176 0 0 0 0 0.156863 0 0 0 0.05 0"/>
<feBlend mode="normal" in2="BackgroundImageFix" result="effect1_dropShadow_823_17938"/>
<feBlend mode="normal" in="SourceGraphic" in2="effect1_dropShadow_823_17938" result="shape"/>
</filter>
</defs>
</svg>
